<svg id="Layer_1" data-name="Layer 1" xmlns="http://www.w3.org/2000/svg" viewBox="0 0 614.23 187.41"><defs><style>.cls-1{fill:#b4922f;}.cls-2{fill:#c49e2e;}.cls-3{fill:#be1e2d;}.cls-4,.cls-5{fill:#fff;}.cls-5{font-size:99.58px;font-family:BundaySlab-Bold, Bunday Slab;font-weight:700;}.cls-6{letter-spacing:-0.04em;}.cls-7{letter-spacing:-0.01em;}.cls-8{letter-spacing:-0.01em;}.cls-9{letter-spacing:-0.01em;}</style></defs><path class="cls-1" d="M25.42,216.65S34.33,223.9,42.2,227s19.69,7,28.39,2.27,18.23-19.06,18.23-19.06c3.73-6,17.87-16.89,12.64-7C83,228.66,80.53,239,80.53,239s10,35.85,4.56,64c-5.38,26.11-9.32,16.37-9.32,16.37s4.56-25.28,0-42.68-14.5,2.69-14.5,2.69-10,20.72-16.79,24.87C36.2,307,54.64,273,54.64,273s14.08-21.34-2.49-31.08c0,0-21.94-12.95-26.73-17.4,0,0-4.76-4.42-3.52-8.84C21.69,213.54,25.42,216.65,25.42,216.65Z" transform="translate(-21.69 -192.87)"/><ellipse class="cls-1" cx="59.34" cy="215.68" rx="7.25" ry="10.48" transform="translate(-144.36 -107.24) rotate(-39.07)"/><path class="cls-2" d="M42.55,202.58l0,0a7.71,7.71,0,0,1-2.75,2.12,3.48,3.48,0,0,0,.76.55,7.28,7.28,0,0,0,2.61-2.77l.11-.28Z" transform="translate(-21.69 -192.87)"/><path class="cls-2" d="M45.59,199.66l0,0A7.74,7.74,0,0,0,47.91,197a4.78,4.78,0,0,1,.5.79,7.23,7.23,0,0,1-2.91,2.46l-.28.1Z" transform="translate(-21.69 -192.87)"/><path class="cls-3" d="M44.19,202.38a13.54,13.54,0,0,0-2.28,3.39H42a1.1,1.1,0,0,1,.77.38,1,1,0,0,1,.22-.31l.06-.05a1.25,1.25,0,0,1,1.18-.11,1.52,1.52,0,0,1,1,1.14h0a1,1,0,0,1,0,.25h0a.32.32,0,0,0,.08-.09.8.8,0,0,0,.12-.6l0-.19h.19a1,1,0,0,0,.53-.18l.08-.07.1-.1a1.29,1.29,0,0,1-.63.08,1.52,1.52,0,0,1-1.26-1.64,1.41,1.41,0,0,1,.31-.71,1.13,1.13,0,0,1-.62-.63A1,1,0,0,1,44.19,202.38Z" transform="translate(-21.69 -192.87)"/><path class="cls-3" d="M48.82,200.22a.18.18,0,0,1,0-.07,1.66,1.66,0,0,1,.3-.19,1.14,1.14,0,0,1-.33-.84,13.36,13.36,0,0,0-3.45,2.11,1.1,1.1,0,0,1,.51,0,1.26,1.26,0,0,1,.77.59,1.44,1.44,0,0,1,1-.21A1.48,1.48,0,0,1,48.87,203a1.16,1.16,0,0,1-.08.42h0a1,1,0,0,0,.19-.55h.16v-.18h0a1.76,1.76,0,0,0,.69-.13l.09-.06-.15,0a1.5,1.5,0,0,1-1-.83A1.33,1.33,0,0,1,48.82,200.22Z" transform="translate(-21.69 -192.87)"/><path class="cls-2" d="M44.78,201.78a1.42,1.42,0,0,0-.46.83l1.3-1.24A1.39,1.39,0,0,0,44.78,201.78Z" transform="translate(-21.69 -192.87)"/><path class="cls-2" d="M42.93,201.33l.1,0,1.11,1.3a1.57,1.57,0,0,1,.52-1h0a1.52,1.52,0,0,1,1-.45l-1.27-1.14a1,1,0,0,0,0-.24,1.28,1.28,0,0,0-.35-.8,2.89,2.89,0,0,0-1.33.78,2.8,2.8,0,0,0-.7,1.27A1.43,1.43,0,0,0,42.93,201.33Z" transform="translate(-21.69 -192.87)"/><path class="cls-2" d="M42.48,197.12a.3.3,0,0,0-.42,0,.3.3,0,0,0-.43,0,.3.3,0,0,0,0,.42l0,0-.29.27-.4-.42h0a.3.3,0,0,0,0-.43.3.3,0,0,0-.42,0,.3.3,0,0,0-.41,0,.31.31,0,0,0,0,.43.3.3,0,0,0,0,.42.3.3,0,0,0,.39,0l.39.4-.33.31h0a.3.3,0,1,0-.43.41.3.3,0,0,0,.42.42.3.3,0,0,0,.43,0,.3.3,0,0,0,0-.42l0,0,.32-.3.49.51.54-.34-.57-.6.29-.28h0a.3.3,0,0,0,.43-.41A.3.3,0,0,0,42.48,197.12Z" transform="translate(-21.69 -192.87)"/><path class="cls-2" d="M43.68,198.62a1.39,1.39,0,0,0-.81-.36,1.52,1.52,0,0,0-1.54,1.39,1.41,1.41,0,0,0,.31.9,3.43,3.43,0,0,1,.82-1.2A3.32,3.32,0,0,1,43.68,198.62Z" transform="translate(-21.69 -192.87)"/><circle class="cls-4" cx="21.76" cy="7.51" r="0.53"/><circle class="cls-4" cx="22.58" cy="8.37" r="0.4"/><path class="cls-2" d="M45.91,213.45A22.07,22.07,0,0,1,56.3,203.32a.83.83,0,0,0,.13-.42c0-.58-.57-1.19-1.5-1.52a19.84,19.84,0,0,0-10.85,10.43c.12,1,.64,1.68,1.23,1.76A1.11,1.11,0,0,0,45.91,213.45Z" transform="translate(-21.69 -192.87)"/><path class="cls-2" d="M43.68,211.63a23.69,23.69,0,0,1,4.73-6.36A23.37,23.37,0,0,1,54.67,201l-.48-.81a.78.78,0,0,0-.27-1.47c.06-.28.12-.56.19-.85l.18-.68c-1-.31-1.8.07-1.91.5s.26.81.79,1.12a.56.56,0,0,0-.45,0c-.29.17-.28.76,0,1.12a1.11,1.11,0,0,0,1.06.47.6.6,0,0,1-.32.29.66.66,0,0,1-.47,0,1.15,1.15,0,0,1-.94.62h0a1.42,1.42,0,0,0,.54-.91c.07-.52-.2-1.24-.68-1.31a.84.84,0,0,0-.66.26,1.13,1.13,0,0,0-.61-1.18,1.19,1.19,0,0,0-1,.26A1.12,1.12,0,0,0,49,199a1.08,1.08,0,0,0,.51,1,.87.87,0,0,0-.59.27c-.38.44,0,1.14,0,1.22a1.35,1.35,0,0,0,.88.74,1.14,1.14,0,0,0,.54,0,1,1,0,0,1-.23.28.8.8,0,0,1-.22.14,2,2,0,0,1-.77.16h0a1.13,1.13,0,0,1-.25.66,1.6,1.6,0,0,1-.68.36h0a1.2,1.2,0,0,0-.63-2.11,1.34,1.34,0,0,0-1,.3,1.24,1.24,0,0,0-.75-.68c-.78-.18-1.72.83-1.52,1.49.11.38.58.56.76.62a1.33,1.33,0,0,0-.44.8,1.35,1.35,0,0,0,1.1,1.45,1.29,1.29,0,0,0,1-.34,1.13,1.13,0,0,1-.44.74,1.08,1.08,0,0,1-.63.21,1,1,0,0,1-.15.73,1.84,1.84,0,0,1-.53.4h0a1.2,1.2,0,0,0,.13-.64,1.37,1.37,0,0,0-.93-1,1.08,1.08,0,0,0-1,.07,1,1,0,0,0-.33.63,1,1,0,0,0-.84-.61c-.62,0-1,.66-1,.73a1,1,0,0,0,1.09,1.43.83.83,0,0,0-.26.64c0,.36.41.54.67.67a1,1,0,0,0,.82.16,1,1,0,0,0,.6-.64.8.8,0,0,1,0,.4,1,1,0,0,1-.58.56.51.51,0,0,1,0,.45.55.55,0,0,1-.39.29,1,1,0,0,0-.58-1,1,1,0,0,0-1.12.33,1,1,0,0,0-.89-.59c-.44.06-.88.75-.68,1.65l1.56-.08a1,1,0,0,0,1,.66.81.81,0,0,0,.49-.33Z" transform="translate(-21.69 -192.87)"/><path class="cls-3" d="M41.76,208.29a1.27,1.27,0,0,1-.68-.27c-.12.45-.21.86-.27,1.21a1.49,1.49,0,0,1,.49.4,1.12,1.12,0,0,1,.75-.29.82.82,0,0,1-.37-.58A.8.8,0,0,1,41.76,208.29Z" transform="translate(-21.69 -192.87)"/><polygon class="cls-3" points="27.47 9.97 27.47 9.97 27.47 9.97 27.47 9.97"/><path class="cls-2" d="M52.6,197.36a5.58,5.58,0,0,1,.1.59l1.36-.17a6.27,6.27,0,0,0-.06-.68A1.72,1.72,0,0,0,52.6,197.36Z" transform="translate(-21.69 -192.87)"/><path class="cls-2" d="M53,193.43a.83.83,0,0,0-1-.14.91.91,0,0,0-.11-.16.84.84,0,0,0-1.18,0,.81.81,0,0,0-.21.34.72.72,0,0,0-.11-.15.82.82,0,0,0-1.17,0,.78.78,0,0,0-.25.54,1,1,0,0,1,.47.28,1,1,0,0,1,.26.86,1,1,0,0,1,.76.31l.07.09a1.18,1.18,0,0,1,.53-.15c.58,0,1.2.78,1.52,2a2,2,0,0,1,1.43-.25l0-.17a.85.85,0,0,0,.41-.21.82.82,0,0,0,0-1.17.78.78,0,0,0-.39-.23.81.81,0,0,0-.79-1A.85.85,0,0,0,53,193.43Z" transform="translate(-21.69 -192.87)"/><path class="cls-2" d="M49.59,198.4a1.67,1.67,0,0,0-.32.24.72.72,0,0,0-.2.28c.15.43.26.79.31,1l1.68-1.09q-.11-.25-.21-.48a.66.66,0,0,0-.26-.16A1.19,1.19,0,0,0,49.59,198.4Z" transform="translate(-21.69 -192.87)"/><path class="cls-2" d="M47.47,196.57c.59,0,1.15,1.15,1.52,2.13a.7.7,0,0,1,.16-.19,2,2,0,0,1,.35-.26,1.37,1.37,0,0,1,1.15-.28l.06,0a.54.54,0,0,0-.05-.11,1,1,0,0,0,.26-.16.83.83,0,0,0-.48-1.43.81.81,0,0,0-.14-.93.83.83,0,0,0-.89-.21.83.83,0,0,0-1.3-1,.8.8,0,0,0-.22.36l0,0-.06-.08a.82.82,0,0,0-1.17,0,.81.81,0,0,0-.25.7.82.82,0,0,0-1,1.14.8.8,0,0,0-.53.23.82.82,0,0,0-.16,1,1,1,0,0,0-.29.18.83.83,0,0,0,.75,1.41c-.22.37-.42.67-.56.9l.38.4c.22-.41.53-1,.9-1.62C47.08,196.7,47.3,196.58,47.47,196.57Z" transform="translate(-21.69 -192.87)"/><path class="cls-2" d="M41,206.67a1.05,1.05,0,0,0,0,1,.9.9,0,0,0,.38.34l1.18-1.62c-.16-.06-.52-.18-.94-.36a.88.88,0,0,0-.27.19A1.67,1.67,0,0,0,41,206.67Z" transform="translate(-21.69 -192.87)"/><path class="cls-2" d="M37.86,206.15a.83.83,0,0,0,.16.91.82.82,0,0,0,.92.19.81.81,0,0,0,.22.52.82.82,0,0,0,1.17,0,.72.72,0,0,0,.18-.25l.33.18a1.19,1.19,0,0,1,0-1.13,1.62,1.62,0,0,1,.37-.52.9.9,0,0,1,.19-.15c-1-.42-2.13-1.05-2.05-1.63,0-.17.15-.39,2.29-1.47.68-.34,1.25-.61,1.67-.81l-.38-.41-.93.51a.83.83,0,0,0-1.37-.82.7.7,0,0,0-.19.29.83.83,0,0,0-1,.09.81.81,0,0,0-.26.52.84.84,0,0,0-1,.13.81.81,0,0,0-.23.79.81.81,0,0,0-.72.21.83.83,0,0,0,0,1.17.27.27,0,0,0,.08.07l0,0a.93.93,0,0,0-.38.2.84.84,0,0,0,0,1.18A.82.82,0,0,0,37.86,206.15Z" transform="translate(-21.69 -192.87)"/><path class="cls-2" d="M39.7,210.87l.52.08.24-1.35-.42-.1A1.53,1.53,0,0,0,39.7,210.87Z" transform="translate(-21.69 -192.87)"/><path class="cls-2" d="M39.85,209.45c-1.27-.37-2.08-1.07-2.05-1.67a1.32,1.32,0,0,1,.17-.52l-.08-.08a1,1,0,0,1-.27-.78,1,1,0,0,1-.85-.3,1,1,0,0,1-.25-.49.82.82,0,0,0-.55.22.83.83,0,0,0,0,1.18l.14.11a.83.83,0,0,0-.38,1.37.53.53,0,0,0,.14.12.86.86,0,0,0,.09,1,.85.85,0,0,0,.65.25.81.81,0,0,0,1,.85.76.76,0,0,0,.2.4.84.84,0,0,0,1.18,0,.92.92,0,0,0,.23-.39l.31.06A1.76,1.76,0,0,1,39.85,209.45Z" transform="translate(-21.69 -192.87)"/><path class="cls-3" d="M43.19,210l-.11-.18,0,0-.2,0a1.11,1.11,0,0,1,.24.59.35.35,0,0,0,.05-.08A.33.33,0,0,0,43.19,210Z" transform="translate(-21.69 -192.87)"/><path class="cls-3" d="M51.14,198.38a1.48,1.48,0,0,1,.22.61.84.84,0,0,1,.52-.1.75.75,0,0,1,.46.25.72.72,0,0,1,.2-.42.39.39,0,0,1,.1-.08h0a1.69,1.69,0,0,1-.36-.47C52,198.21,51.58,198.28,51.14,198.38Z" transform="translate(-21.69 -192.87)"/><path class="cls-2" d="M39.6,204.83c-.89.43-1.74.73-2.39,1.12,0,0,0-.06-.07-.08a.86.86,0,0,0-.43-.25.79.79,0,0,0,.19.36.82.82,0,0,0,1,.17.83.83,0,0,0,.16.91s0,0,0,.05a3.46,3.46,0,0,1,.3-.39,3,3,0,0,1,.86-.66c.24-.13.66-.35,1.13-.66A3.42,3.42,0,0,1,39.6,204.83Z" transform="translate(-21.69 -192.87)"/><path class="cls-2" d="M43.1,201.78c-.07.12-.18.29-.32.5l.55-.26Z" transform="translate(-21.69 -192.87)"/><path class="cls-3" d="M52.58,200.84a1,1,0,0,0,.2-.26l.08-.15.15.07a.53.53,0,0,0,.28,0,1.18,1.18,0,0,1-.56-.27.71.71,0,0,0,0,.14,1.91,1.91,0,0,1-.14.46Z" transform="translate(-21.69 -192.87)"/><circle class="cls-4" cx="14.54" cy="14.97" r="0.53"/><circle class="cls-4" cx="14.78" cy="16.26" r="0.53"/><circle class="cls-4" cx="15.68" cy="17.18" r="0.53"/><circle class="cls-4" cx="16.75" cy="17.72" r="0.53"/><circle class="cls-4" cx="16.15" cy="11.05" r="0.53"/><circle class="cls-4" cx="17.08" cy="10.02" r="0.53"/><circle class="cls-4" cx="18.29" cy="9.41" r="0.53"/><circle class="cls-4" cx="19.46" cy="9.02" r="0.53"/><circle class="cls-4" cx="15.76" cy="12.53" r="0.53"/><circle class="cls-4" cx="16.89" cy="13.58" r="0.53"/><circle class="cls-4" cx="18.11" cy="14.37" r="0.53"/><path class="cls-4" d="M36.77,206.1l-.11-.15a.53.53,0,1,0,.25.9.54.54,0,0,0,.14-.55A1.1,1.1,0,0,1,36.77,206.1Z" transform="translate(-21.69 -192.87)"/><path class="cls-2" d="M48,196.83c.47-.86.82-1.69,1.25-2.33a.27.27,0,0,1-.08-.07.8.8,0,0,1-.22-.45.83.83,0,0,1,.34.22.82.82,0,0,1,.13,1,.83.83,0,0,1,.89.21l.05,0a3.36,3.36,0,0,0-.41.29,3.12,3.12,0,0,0-.71.82c-.13.23-.38.63-.71,1.09A3.5,3.5,0,0,0,48,196.83Z" transform="translate(-21.69 -192.87)"/><path class="cls-2" d="M44.75,200.16a5.24,5.24,0,0,0,.52-.29l-.29.54Z" transform="translate(-21.69 -192.87)"/><circle class="cls-4" cx="29.49" cy="0.76" r="0.53"/><circle class="cls-4" cx="30.76" cy="1.07" r="0.53"/><circle class="cls-4" cx="31.63" cy="2.01" r="0.53"/><circle class="cls-4" cx="32.11" cy="3.11" r="0.53"/><circle class="cls-4" cx="25.48" cy="2.16" r="0.53"/><circle class="cls-4" cx="24.4" cy="3.03" r="0.53"/><circle class="cls-4" cx="23.73" cy="4.2" r="0.53"/><circle class="cls-4" cx="23.18" cy="5.44" r="0.53"/><circle class="cls-4" cx="26.99" cy="1.84" r="0.53"/><circle class="cls-4" cx="27.97" cy="3.03" r="0.53"/><circle class="cls-4" cx="28.69" cy="4.29" r="0.53"/><path class="cls-4" d="M49.41,194.08a.86.86,0,0,0-.14-.13.51.51,0,0,1,.15-.46.53.53,0,0,1,.75,0,.52.52,0,0,1,0,.74.51.51,0,0,1-.55.11A1.07,1.07,0,0,0,49.41,194.08Z" transform="translate(-21.69 -192.87)"/><rect class="cls-4" x="46.2" y="202.86" width="0.96" height="1.66" transform="translate(-148.98 -104.95) rotate(-43.45)"/><rect class="cls-4" x="48.98" y="205.69" width="0.96" height="1.66" transform="translate(-150.17 -102.26) rotate(-43.45)"/><polygon class="cls-4" points="21.33 14.73 21.62 15.21 22.24 15.14 21.91 14.67 21.33 14.73"/><polygon class="cls-4" points="24.23 17.29 24.52 17.78 25.14 17.71 24.8 17.23 24.23 17.29"/><polygon class="cls-4" points="19.98 17.69 20.27 18.17 20.89 18.1 20.56 17.63 19.98 17.69"/><polygon class="cls-4" points="29.21 7.27 29.05 7.82 29.53 8.22 29.65 7.66 29.21 7.27"/><polygon class="cls-4" points="31.95 10.02 31.79 10.56 32.27 10.97 32.39 10.4 31.95 10.02"/><polygon class="cls-4" points="32 6.11 31.84 6.66 32.32 7.06 32.44 6.49 32 6.11"/><ellipse class="cls-3" cx="47.75" cy="208.34" rx="0.49" ry="0.66" transform="translate(-151.89 -102.94) rotate(-43.45)"/><ellipse class="cls-3" cx="45.27" cy="212.27" rx="0.49" ry="0.66" transform="translate(-155.27 -103.57) rotate(-43.45)"/><ellipse class="cls-3" cx="51.76" cy="204.74" rx="0.49" ry="0.66" transform="translate(-148.31 -101.17) rotate(-43.45)"/><ellipse class="cls-3" cx="55.32" cy="202.61" rx="0.49" ry="0.66" transform="translate(-145.87 -99.3) rotate(-43.45)"/><text class="cls-5" transform="translate(80.22 101.53)"><tspan class="cls-6">V</tspan><tspan x="52.48" y="0">o</tspan><tspan class="cls-7" x="104.06" y="0">l</tspan><tspan class="cls-8" x="133.33" y="0">t</tspan><tspan x="169.88" y="0">a</tspan><tspan class="cls-9" x="221.95" y="0">r</tspan><tspan x="260.69" y="0">en</tspan></text></svg>