<svg id="Layer_1" data-name="Layer 1" xmlns="http://www.w3.org/2000/svg" viewBox="0 0 292.22 463.41"><defs><style>.cls-1{fill:#b4922f;}.cls-2{fill:#c49e2e;}.cls-3{fill:#be1e2d;}.cls-4{fill:#fff;}</style></defs><path class="cls-1" d="M117.36,104.16s32.17,26.18,60.61,37.41,71.08,25.44,102.5,8.23S346.32,81,346.32,81c13.47-21.7,64.54-61,45.64-25.44C325.37,147.55,316.39,185,316.39,185s35.92,129.44,16.46,231.2c-19.45,94.28-33.67,59.11-33.67,59.11s16.46-91.28,0-154.13-52.38,9.72-52.38,9.72-35.91,74.83-60.6,89.79c-29.93,9.73,36.66-113,36.66-113s50.88-77.07-9-112.24c0,0-79.22-46.79-96.52-62.85,0,0-17.21-16-12.72-31.92C103.89,92.93,117.36,104.16,117.36,104.16Z" transform="translate(-103.89 -18.29)"/><ellipse class="cls-1" cx="239.86" cy="100.67" rx="26.19" ry="37.86" transform="translate(-113.7 155.38) rotate(-39.07)"/><path class="cls-2" d="M179.22,53.37l-.12.16a28,28,0,0,1-9.93,7.68,13.19,13.19,0,0,0,2.74,2c3.37-2.25,7.43-5.62,9.42-10,.17-.37.31-.71.42-1Z" transform="translate(-103.89 -18.29)"/><path class="cls-2" d="M190.19,42.81l.16-.12a27.93,27.93,0,0,0,8.2-9.5A13,13,0,0,1,200.36,36c-2.42,3.25-6,7.12-10.48,8.87-.38.15-.73.27-1,.36C189.29,44.44,189.73,43.62,190.19,42.81Z" transform="translate(-103.89 -18.29)"/><path class="cls-3" d="M185.13,52.64a48.36,48.36,0,0,0-8.21,12.23h.35a4.1,4.1,0,0,1,2.78,1.37,3.72,3.72,0,0,1,.78-1.1l.23-.2a4.51,4.51,0,0,1,4.26-.38,5.52,5.52,0,0,1,3.79,4.12h0a4.79,4.79,0,0,1,0,.89h0a3.73,3.73,0,0,0,.28-.31,3,3,0,0,0,.42-2.17l-.07-.68.68,0a3.37,3.37,0,0,0,1.91-.64,1.94,1.94,0,0,0,.31-.26,2.2,2.2,0,0,0,.33-.36,4.7,4.7,0,0,1-2.27.31,5.49,5.49,0,0,1-4.53-5.94,5,5,0,0,1,1.12-2.57,4,4,0,0,1-2.24-2.28A3.43,3.43,0,0,1,185.13,52.64Z" transform="translate(-103.89 -18.29)"/><path class="cls-3" d="M201.84,44.82a2.39,2.39,0,0,1,.22-.23,3.38,3.38,0,0,1,1.08-.68A4.19,4.19,0,0,1,202,40.85a48.42,48.42,0,0,0-12.5,7.65,3.93,3.93,0,0,1,1.86-.07,4.67,4.67,0,0,1,2.77,2.16,5.25,5.25,0,0,1,3.57-.78,5.32,5.32,0,0,1,4.38,5,4.27,4.27,0,0,1-.27,1.51h0a3.48,3.48,0,0,0,.71-2l.58,0,0-.63h.1a6.35,6.35,0,0,0,2.48-.49,2.79,2.79,0,0,0,.33-.19,3,3,0,0,1-.52-.08,5.37,5.37,0,0,1-3.6-3C201.43,49.18,200.32,46.58,201.84,44.82Z" transform="translate(-103.89 -18.29)"/><path class="cls-2" d="M187.26,50.47a5.22,5.22,0,0,0-1.67,3l4.7-4.46A5.14,5.14,0,0,0,187.26,50.47Z" transform="translate(-103.89 -18.29)"/><path class="cls-2" d="M180.59,48.84l.35-.05,4,4.68A5.65,5.65,0,0,1,186.83,50h0a5.53,5.53,0,0,1,3.65-1.65l-4.6-4.1a3.67,3.67,0,0,0,.06-.89,4.42,4.42,0,0,0-1.28-2.86,10.24,10.24,0,0,0-7.33,7.38A5,5,0,0,0,180.59,48.84Z" transform="translate(-103.89 -18.29)"/><path class="cls-2" d="M179,33.64a1.09,1.09,0,0,0-1.53,0,1.09,1.09,0,0,0-1.53,0,1.07,1.07,0,0,0,0,1.53,1.31,1.31,0,0,0,.12.11l-1,1-1.44-1.52,0,0a1.07,1.07,0,0,0,0-1.53,45.63,45.63,0,0,0-3,0,1.1,1.1,0,0,0,0,1.54,1.08,1.08,0,0,0,1.37,1.66l1.39,1.47-1.18,1.12a0,0,0,0,1,0,0,1.1,1.1,0,0,0-1.54,0,1.09,1.09,0,0,0,0,1.53,1.06,1.06,0,0,0,0,1.47,234.4,234.4,0,0,0,3.06.09,1.09,1.09,0,0,0,.05-1.54l-.16-.13,1.14-1.08L176.38,41l2-1.22-2.07-2.19,1.07-1s0,0,.05.05a1.08,1.08,0,0,0,1.53,0,1.1,1.1,0,0,0,0-1.53A1.08,1.08,0,0,0,179,33.64Z" transform="translate(-103.89 -18.29)"/><path class="cls-2" d="M183.28,39.06a4.87,4.87,0,0,0-2.92-1.32,5.53,5.53,0,0,0-5.57,5A5.09,5.09,0,0,0,175.94,46a12.15,12.15,0,0,1,2.95-4.32A12,12,0,0,1,183.28,39.06Z" transform="translate(-103.89 -18.29)"/><circle class="cls-4" cx="78.58" cy="27.11" r="1.91"/><circle class="cls-4" cx="81.54" cy="30.24" r="1.44"/><path class="cls-2" d="M191.35,92.61A79.8,79.8,0,0,1,228.86,56a3.17,3.17,0,0,0,.49-1.52c.12-2.09-2.06-4.29-5.42-5.48a71.63,71.63,0,0,0-39.18,37.67c.41,3.53,2.3,6.07,4.45,6.35A3.75,3.75,0,0,0,191.35,92.61Z" transform="translate(-103.89 -18.29)"/><path class="cls-2" d="M183.31,86.05A84.72,84.72,0,0,1,223,47.59l-1.76-2.93a3,3,0,0,0,1.33-3.61,3.12,3.12,0,0,0-2.29-1.7c.22-1,.45-2,.7-3.09.2-.83.4-1.65.61-2.45-3.6-1.12-6.5.28-6.86,1.83-.29,1.23.93,2.92,2.85,4a1.86,1.86,0,0,0-1.62,0c-1.05.61-1,2.73-.21,4a4,4,0,0,0,3.83,1.67,2.21,2.21,0,0,1-1.15,1.05,2.24,2.24,0,0,1-1.7,0,4.19,4.19,0,0,1-1.6,1.69,4.37,4.37,0,0,1-1.78.57h0a5.19,5.19,0,0,0,1.94-3.28c.23-1.87-.73-4.47-2.47-4.74a3.12,3.12,0,0,0-2.38.94c.12-2-.82-3.79-2.21-4.27s-2.8.43-3.59.94a3.89,3.89,0,0,0-2,2.32,3.82,3.82,0,0,0,1.83,3.67,3.2,3.2,0,0,0-2.13,1c-1.36,1.58-.09,4.13.05,4.43a4.89,4.89,0,0,0,3.17,2.66,4.26,4.26,0,0,0,2-.07,4.07,4.07,0,0,1-.83,1,4.15,4.15,0,0,1-.78.53,7.1,7.1,0,0,1-2.79.55h0a4,4,0,0,1-.88,2.41A5.83,5.83,0,0,1,199.77,58l0,0h0a4.65,4.65,0,0,0,1.57-3.23,4.72,4.72,0,0,0-3.85-4.38,4.84,4.84,0,0,0-3.67,1.08,4.46,4.46,0,0,0-2.71-2.46c-2.8-.62-6.22,3-5.5,5.41.41,1.37,2.1,2,2.74,2.22a4.74,4.74,0,0,0-1.59,2.89,4.87,4.87,0,0,0,4,5.24,4.8,4.8,0,0,0,3.52-1.22,4.18,4.18,0,0,1-1.6,2.66,4,4,0,0,1-2.26.76,3.51,3.51,0,0,1-.55,2.62A7.1,7.1,0,0,1,188,71.1h0a4.3,4.3,0,0,0,.46-2.32,4.92,4.92,0,0,0-3.36-3.6c-.59-.2-2.35-.78-3.67.28a3.37,3.37,0,0,0-1.18,2.26,3.73,3.73,0,0,0-3.05-2.2c-2.25-.12-3.43,2.36-3.55,2.63a3.89,3.89,0,0,0-.05,3.59,3.8,3.8,0,0,0,4,1.57,3,3,0,0,0-.95,2.33c.15,1.28,1.48,1.93,2.44,2.41a3.87,3.87,0,0,0,3,.59,3.63,3.63,0,0,0,2.16-2.34,2.92,2.92,0,0,1-.09,1.46,3.35,3.35,0,0,1-2.09,2,1.74,1.74,0,0,1-1.28,2.67,3.42,3.42,0,0,0-6.14-2.59c-.84-1.33-2.1-2.28-3.22-2.13-1.58.21-3.19,2.71-2.45,6l5.61-.29a3.53,3.53,0,0,0,3.62,2.37A3,3,0,0,0,180,84.55Z" transform="translate(-103.89 -18.29)"/><path class="cls-3" d="M176.37,74a4.49,4.49,0,0,1-2.45-1c-.45,1.64-.76,3.12-1,4.38a5.26,5.26,0,0,1,1.77,1.46,4.1,4.1,0,0,1,2.73-1A2.88,2.88,0,0,1,176.37,74Z" transform="translate(-103.89 -18.29)"/><path class="cls-3" d="M203.09,54.32h0Z" transform="translate(-103.89 -18.29)"/><path class="cls-2" d="M215.5,34.51a19.65,19.65,0,0,1,.38,2.13l4.91-.62a23.4,23.4,0,0,0-.22-2.46A6.16,6.16,0,0,0,215.5,34.51Z" transform="translate(-103.89 -18.29)"/><path class="cls-2" d="M216.91,20.32a3,3,0,0,0-3.67-.53,3.22,3.22,0,0,0-.41-.56,3,3,0,0,0-4.24-.11,3,3,0,0,0-.77,1.22,2.9,2.9,0,0,0-.39-.53,3,3,0,0,0-4.24-.12,3.05,3.05,0,0,0-.92,1.95,3.66,3.66,0,0,1,1.72,1,3.61,3.61,0,0,1,.93,3.1,3.66,3.66,0,0,1,2.75,1.13,3.92,3.92,0,0,1,.27.33,4.3,4.3,0,0,1,1.91-.53c2.09,0,4.34,2.81,5.48,7.16a7,7,0,0,1,5.15-.94c0-.19-.06-.39-.1-.59a3,3,0,0,0,.2-5.82,3,3,0,0,0-2.87-3.81A3,3,0,0,0,216.91,20.32Z" transform="translate(-103.89 -18.29)"/><path class="cls-2" d="M204.65,38.25a8,8,0,0,0-1.17.87,2.83,2.83,0,0,0-.72,1c.55,1.55,1,2.86,1.11,3.43L210,39.63c-.26-.6-.52-1.18-.77-1.74a2.68,2.68,0,0,0-.95-.58C206.86,36.82,205.44,37.74,204.65,38.25Z" transform="translate(-103.89 -18.29)"/><path class="cls-2" d="M197,31.65c2.11-.15,4.16,4.16,5.48,7.7a3.67,3.67,0,0,1,.58-.69,8.39,8.39,0,0,1,1.26-.94c.86-.56,2.46-1.59,4.14-1l.25.11-.19-.4a3,3,0,0,0-.79-5.73A3,3,0,0,0,204,26.58,3,3,0,0,0,199.29,23a2.92,2.92,0,0,0-.8,1.33l-.13.05a2,2,0,0,0-.22-.29A3,3,0,0,0,193,26.48a3,3,0,0,0-3.53,4.14A3,3,0,0,0,187,35.05a3.1,3.1,0,0,0-1.06.65,3,3,0,0,0,2.7,5.09c-.8,1.32-1.5,2.43-2,3.25L188,45.5c.8-1.49,1.89-3.5,3.24-5.85C195.56,32.12,196.37,31.69,197,31.65Z" transform="translate(-103.89 -18.29)"/><path class="cls-2" d="M173.68,68.13a3.89,3.89,0,0,0-.05,3.59A3.39,3.39,0,0,0,175,72.94l4.26-5.86c-.56-.2-1.86-.67-3.39-1.31a4.07,4.07,0,0,0-1,.68A5.53,5.53,0,0,0,173.68,68.13Z" transform="translate(-103.89 -18.29)"/><path class="cls-2" d="M162.27,66.26a3,3,0,0,0,3.91,4,3,3,0,0,0,5,2,2.76,2.76,0,0,0,.64-.89L173,72a4.32,4.32,0,0,1,.06-4.08A6.55,6.55,0,0,1,174.44,66a5.44,5.44,0,0,1,.68-.53c-3.46-1.52-7.67-3.8-7.4-5.9.07-.61.55-1.4,8.29-5.3,2.43-1.22,4.49-2.21,6-2.93l-1.38-1.46c-.84.47-2,1.11-3.35,1.84a3,3,0,0,0-5-3,3.09,3.09,0,0,0-.7,1A3,3,0,0,0,167.09,52a3,3,0,0,0-4.32,3.3,3,3,0,0,0-2.69,5,3.08,3.08,0,0,0,.27.24l0,.12a3,3,0,1,0,2,5.6Z" transform="translate(-103.89 -18.29)"/><path class="cls-2" d="M168.91,83.31c1,.18,1.73.25,1.88.26.3-1.62.59-3.25.89-4.87-.52-.1-1-.22-1.52-.34A5.55,5.55,0,0,0,168.91,83.31Z" transform="translate(-103.89 -18.29)"/><path class="cls-2" d="M169.47,78.17c-4.61-1.34-7.5-3.86-7.42-6a4.52,4.52,0,0,1,.64-1.89,2.7,2.7,0,0,1-.31-.28,3.61,3.61,0,0,1-1-2.81,3.59,3.59,0,0,1-4-2.86,2.92,2.92,0,0,0-2,.81,3,3,0,0,0-.11,4.24,2.59,2.59,0,0,0,.51.42,3,3,0,0,0-1.38,4.94,3.25,3.25,0,0,0,.54.44,3,3,0,0,0,2.64,4.61,3,3,0,0,0,3.65,3.08,3,3,0,0,0,.75,1.44A3,3,0,0,0,167.11,83l1.13.23A6.31,6.31,0,0,1,169.47,78.17Z" transform="translate(-103.89 -18.29)"/><path class="cls-3" d="M181.53,80.09l-.42-.67.16-.06a2.92,2.92,0,0,1-.73-.09,4.17,4.17,0,0,1,.89,2.14,1.67,1.67,0,0,0,.18-.28A1.21,1.21,0,0,0,181.53,80.09Z" transform="translate(-103.89 -18.29)"/><path class="cls-3" d="M210.23,38.18a5.27,5.27,0,0,1,.8,2.21,3,3,0,0,1,1.89-.37,2.88,2.88,0,0,1,1.65.9,2.57,2.57,0,0,1,.73-1.52,2.18,2.18,0,0,1,.34-.26l.09,0a5.85,5.85,0,0,1-1.3-1.7C213.25,37.57,211.83,37.81,210.23,38.18Z" transform="translate(-103.89 -18.29)"/><path class="cls-2" d="M168.57,61.49c-3.21,1.53-6.28,2.61-8.66,4a2.69,2.69,0,0,0-1.8-1.17,2.94,2.94,0,0,0,.7,1.28,3,3,0,0,0,3.46.63,3,3,0,0,0,.57,3.28l.19.17a12.09,12.09,0,0,1,1.09-1.41,11,11,0,0,1,3.12-2.39c.86-.45,2.35-1.25,4.07-2.35A12.39,12.39,0,0,1,168.57,61.49Z" transform="translate(-103.89 -18.29)"/><path class="cls-2" d="M181.2,50.46c-.25.43-.64,1.07-1.17,1.82l2-1Z" transform="translate(-103.89 -18.29)"/><path class="cls-3" d="M215.45,47.09a3.82,3.82,0,0,0,.72-1l.27-.53.55.24a1.59,1.59,0,0,0,1,.1,4.56,4.56,0,0,1-2-1,3.08,3.08,0,0,1,0,.53,5,5,0,0,1-.49,1.64Z" transform="translate(-103.89 -18.29)"/><circle class="cls-4" cx="52.5" cy="54.07" r="1.91"/><circle class="cls-4" cx="53.39" cy="58.71" r="1.91"/><circle class="cls-4" cx="56.61" cy="62.03" r="1.91"/><circle class="cls-4" cx="60.48" cy="63.99" r="1.91"/><circle class="cls-4" cx="58.34" cy="39.9" r="1.91"/><circle class="cls-4" cx="61.7" cy="36.17" r="1.91"/><circle class="cls-4" cx="66.04" cy="33.99" r="1.91"/><circle class="cls-4" cx="70.29" cy="32.58" r="1.91"/><circle class="cls-4" cx="56.91" cy="45.26" r="1.91"/><circle class="cls-4" cx="60.99" cy="49.04" r="1.91"/><circle class="cls-4" cx="65.4" cy="51.88" r="1.91"/><path class="cls-4" d="M158.35,66.06a4,4,0,0,1-.41-.53,1.91,1.91,0,1,0,1.39,1.26A3.58,3.58,0,0,1,158.35,66.06Z" transform="translate(-103.89 -18.29)"/><path class="cls-2" d="M198.87,32.6c1.7-3.12,2.95-6.13,4.5-8.42a3.47,3.47,0,0,1-.29-.25,3,3,0,0,1-.79-1.62,2.87,2.87,0,0,1,1.24.78,3,3,0,0,1,.44,3.49,3,3,0,0,1,3.24.74,1.56,1.56,0,0,1,.16.2,11.31,11.31,0,0,0-4,4c-.51.83-1.38,2.28-2.58,3.94A12.14,12.14,0,0,0,198.87,32.6Z" transform="translate(-103.89 -18.29)"/><path class="cls-2" d="M187.17,44.63c.45-.23,1.11-.59,1.88-1.08l-1.05,2Z" transform="translate(-103.89 -18.29)"/><circle class="cls-4" cx="106.49" cy="2.74" r="1.91"/><circle class="cls-4" cx="111.08" cy="3.88" r="1.91"/><circle class="cls-4" cx="114.22" cy="7.28" r="1.91"/><circle class="cls-4" cx="115.97" cy="11.24" r="1.91"/><circle class="cls-4" cx="92.03" cy="7.8" r="1.91"/><circle class="cls-4" cx="88.13" cy="10.95" r="1.91"/><circle class="cls-4" cx="85.71" cy="15.17" r="1.91"/><circle class="cls-4" cx="83.71" cy="19.63" r="1.91"/><circle class="cls-4" cx="97.46" cy="6.66" r="1.91"/><circle class="cls-4" cx="101.01" cy="10.94" r="1.91"/><circle class="cls-4" cx="103.61" cy="15.5" r="1.91"/><path class="cls-4" d="M204,22.65a3.57,3.57,0,0,0-.52-.44,1.94,1.94,0,0,1,.57-1.69,1.92,1.92,0,0,1,2.7.07,1.91,1.91,0,0,1-2.08,3.08A3.75,3.75,0,0,0,204,22.65Z" transform="translate(-103.89 -18.29)"/><rect class="cls-4" x="192.38" y="54.35" width="3.47" height="5.98" transform="translate(-90.13 130.92) rotate(-43.45)"/><rect class="cls-4" x="202.43" y="64.6" width="3.47" height="5.98" transform="translate(-94.43 140.64) rotate(-43.45)"/><polygon class="cls-4" points="77.03 53.19 78.08 54.95 80.32 54.69 79.12 52.97 77.03 53.19"/><polygon class="cls-4" points="87.5 62.45 88.54 64.22 90.79 63.95 89.58 62.24 87.5 62.45"/><polygon class="cls-4" points="72.16 63.87 73.2 65.63 75.45 65.37 74.24 63.66 72.16 63.87"/><polygon class="cls-4" points="105.5 26.27 104.92 28.24 106.64 29.7 107.08 27.65 105.5 26.27"/><polygon class="cls-4" points="115.4 36.17 114.82 38.14 116.55 39.6 116.98 37.55 115.4 36.17"/><polygon class="cls-4" points="115.56 22.07 114.99 24.04 116.71 25.5 117.14 23.45 115.56 22.07"/><ellipse class="cls-3" cx="198.01" cy="74.14" rx="1.75" ry="2.38" transform="translate(-100.62 138.2) rotate(-43.45)"/><ellipse class="cls-3" cx="189.04" cy="88.36" rx="1.75" ry="2.38" transform="translate(-112.85 135.93) rotate(-43.45)"/><ellipse class="cls-3" cx="212.48" cy="61.14" rx="1.75" ry="2.38" transform="translate(-87.71 144.59) rotate(-43.45)"/><ellipse class="cls-3" cx="225.33" cy="53.46" rx="1.75" ry="2.38" transform="translate(-78.91 151.32) rotate(-43.45)"/></svg>